ply
format ascii 1.0
element vertex 34
property float x
property float y
property float z
element face 64
property list uchar int vertex_indices
end_header
1 1 -1
1.30656 0.541196 -1
1.41421 -0 -1
1.30656 -0.541196 -1
1 -1 -1
0.541196 -1.30656 -1
0 -1.41421 -1
-0.541196 -1.30656 -1
-1 -1 -1
-1.30656 -0.541196 -1
-1.41421 0 -1
-1.30656 0.541196 -1
-1 1 -1
-0.541195 1.30656 -1
1e-006 1.41421 -1
0.541197 1.30656 -1
1 0.999999 1
1.30656 0.541195 1
1.41421 -2e-006 1
1.30656 -0.541198 1
0.999998 -1 1
0.541194 -1.30656 1
-3e-006 -1.41421 1
-0.541199 -1.30656 1
-1 -0.999998 1
-1.30656 -0.541193 1
-1.41421 4e-006 1
-1.30656 0.5412 1
-0.999997 1 1
-0.541192 1.30657 1
5e-006 1.41421 1
0.541201 1.30656 1
0 0 -1
0 0 1
3 32 0 1
3 33 17 16
3 32 1 2
3 33 18 17
3 32 2 3
3 33 19 18
3 32 3 4
3 33 20 19
3 32 4 5
3 33 21 20
3 32 5 6
3 33 22 21
3 32 6 7
3 33 23 22
3 32 7 8
3 33 24 23
3 32 8 9
3 33 25 24
3 32 9 10
3 33 26 25
3 32 10 11
3 33 27 26
3 32 11 12
3 33 28 27
3 32 12 13
3 33 29 28
3 32 13 14
3 33 30 29
3 32 14 15
3 33 31 30
3 15 0 32
3 33 16 31
3 0 16 17
3 0 17 1
3 1 17 18
3 1 18 2
3 2 18 19
3 2 19 3
3 3 19 20
3 3 20 4
3 4 20 21
3 4 21 5
3 5 21 22
3 5 22 6
3 6 22 23
3 6 23 7
3 7 23 24
3 7 24 8
3 8 24 25
3 8 25 9
3 9 25 26
3 9 26 10
3 10 26 27
3 10 27 11
3 11 27 28
3 11 28 12
3 12 28 29
3 12 29 13
3 13 29 30
3 13 30 14
3 14 30 31
3 14 31 15
3 16 0 15
3 16 15 31